<svg xmlns="http://www.w3.org/2000/svg" width="269.001" height="157.001" viewBox="0 0 269.001 157.001">
  <g id="Group_302" data-name="Group 302" transform="translate(-52.999 -380.999)">
    <g id="Group_282" data-name="Group 282" transform="translate(69 30)">
      <g id="Kaspi_Bank" data-name="Kaspi Bank" transform="translate(-16 352)">
        <rect id="Rectangle_130" data-name="Rectangle 130" width="269" height="156" rx="13" fill="#ecc274"/>
        <ellipse id="Ellipse_135" data-name="Ellipse 135" cx="13.43" cy="13.43" rx="13.43" ry="13.43" transform="translate(34.404 120.46)" fill="#e73939" opacity="0.152"/>
        <ellipse id="Ellipse_136" data-name="Ellipse 136" cx="13.43" cy="13.43" rx="13.43" ry="13.43" transform="translate(16 120.46)" fill="#ffd029" opacity="0.152"/>
        <text id="_0000_0000_0000_0000_" data-name="0000  0000  0000  0000 " transform="matrix(-1, 0, 0, 1, 143, 110)" fill="#272729" font-size="15" font-family="Helvetica" letter-spacing="0.17em" opacity="0.029"><tspan x="-109.374" y="0" xml:space="preserve">0000  0000  0000  0000 </tspan></text>
        <text id="AIDOS_AIDOSOV" data-name="AIDOS AIDOSOV" transform="matrix(-1, 0, 0, 1, 210.685, 137)" fill="#272729" font-size="10" font-family="Helvetica" letter-spacing="0.17em" opacity="0.152"><tspan x="-49.658" y="0">AIDOS AIDOSOV</tspan></text>
        <rect id="Rectangle_165" data-name="Rectangle 165" width="269" height="36" transform="translate(0 11)" fill="#313131"/>
        <rect id="Rectangle_166" data-name="Rectangle 166" width="127" height="28" transform="translate(15.998 60.773)" fill="#fff"/>
        <path id="Exclusion_3" data-name="Exclusion 3" d="M-3419-10942h-247a10.93,10.93,0,0,1-7.78-3.221A10.927,10.927,0,0,1-3677-10953v-134a10.93,10.93,0,0,1,3.222-7.78A10.933,10.933,0,0,1-3666-11098h247a10.929,10.929,0,0,1,7.777,3.222A10.935,10.935,0,0,1-3408-11087v134a10.929,10.929,0,0,1-3.221,7.778A10.926,10.926,0,0,1-3419-10942Zm-156-92v24h40v-24Z" transform="translate(3677 11097)" fill="#2c2c2c" opacity="0.716"/>
      </g>
    </g>
    <text id="_000" data-name="000" transform="translate(176 461)" fill="#4d4d4d" font-size="12" font-family="Montserrat-Medium, Montserrat" font-weight="500"><tspan x="-12.006" y="0">000</tspan></text>
  </g>
</svg>
